<svg width="1024" height="1024" viewBox="0 0 1024 1024" fill="none" xmlns="http://www.w3.org/2000/svg">
<path d="M331.296 195.323C380.592 133.306 471.901 87.1716 582.344 113.608C646.333 128.925 708.984 169.512 749.637 236.87C789.475 302.88 806.228 391.227 787.088 500.487C811.586 537.635 832.143 581.655 847.193 633.172L847.96 635.818L848.242 636.851C853.883 658.562 841.207 680.932 819.522 687.157C797.836 693.382 775.224 681.142 768.49 659.744L768.182 658.719L767.547 656.523C761.577 636.077 754.644 617.167 746.89 599.712C696.55 670.186 609.911 707.977 528.509 717.887C471.666 724.806 412.729 719.147 362.257 699.524C311.747 679.886 266.763 644.879 245.204 591.715C216.622 521.228 236.859 455.769 283.14 409.68C327.673 365.33 395.192 339.151 466.481 335.03C548.14 330.309 637.65 354.241 712.008 416.015C712.42 357.947 698.713 313.122 678.576 279.758C650.151 232.659 606.833 204.815 563.023 194.328C475.187 173.303 409.208 218.97 384.262 265.002C373.917 284.091 350.606 291.979 330.795 283.096C268.362 255.099 206.649 278.192 169.254 326.223C131.868 374.24 122.791 442.469 165.103 500.956C172.154 510.702 174.627 523.029 171.885 534.742C169.142 546.455 161.453 556.402 150.808 562.005C116.473 580.077 99.4438 602.87 92.3673 623.742C85.1548 645.015 87.1154 667.622 96.5411 687.335C114.744 725.404 161.641 753.872 226.016 727.567L226.849 727.237C244.389 720.504 264.325 726.401 275.364 741.697C326.091 811.982 414.718 840.276 502.51 835.161C545.929 832.631 586.811 821.925 619.341 805.864C652.386 789.549 673.499 769.445 682.974 750.207L683.404 749.357C692.627 731.655 713.207 722.987 732.376 728.868C797.256 748.774 843 742.878 873.18 727.986C903.334 713.108 923.047 686.801 931.833 655.611C950.105 590.745 919.829 515.699 847.885 493.849L872.003 414.432C995.304 451.878 1039.81 578.414 1011.72 678.115C997.332 729.209 963.583 775.933 909.907 802.418C863.258 825.436 805.415 831.312 738.673 816.364C717.428 843.186 688.1 864.481 656.086 880.287C612.599 901.758 560.697 914.912 507.338 918.02C410.514 923.661 301.001 896.216 227.474 814.355C134.517 838.231 55.0695 793.008 21.6613 723.14C3.51304 685.185 -0.850881 640.19 13.7618 597.091C24.5967 565.134 45.2521 535.956 75.5489 512.142C35.8423 428.807 54.5751 338.411 103.764 275.233C154.287 210.341 240.124 170.42 331.296 195.323ZM696.989 518.068C632.445 440.193 545.655 413.592 471.271 417.892C415.516 421.116 368.823 441.487 341.708 468.49C316.34 493.754 307.494 524.452 322.121 560.524L322.629 561.75C333.501 587.417 357.105 608.468 392.333 622.165C428.159 636.094 473.041 641.026 518.479 635.495C601.545 625.383 671.945 583.5 696.989 518.068ZM820.234 442.081C826.895 420.15 850.072 407.771 872.003 414.432L847.885 493.849C825.954 487.189 813.574 464.012 820.234 442.081Z" fill="black"/>
</svg>
